P3
40 20
255
168 203 255
167 202 255
166 202 255
165 201 255
164 201 255
163 200 255
162 199 255
161 199 255
160 198 255
158 197 255
157 196 255
156 196 255
155 195 255
154 194 255
152 194 255
151 193 255
150 192 255
150 192 255
149 192 255
149 191 255
149 191 255
149 191 255
149 192 255
150 192 255
150 192 255
151 193 255
152 194 255
154 194 255
155 195 255
156 196 255
157 196 255
158 197 255
160 198 255
161 199 255
162 199 255
163 200 255
164 201 255
165 201 255
166 202 255
167 202 255
170 204 255
169 204 255
168 203 255
167 203 255
167 202 255
166 202 255
165 201 255
163 200 255
162 200 255
161 199 255
160 198 255
159 197 255
158 197 255
156 196 255
155 195 255
154 195 255
153 194 255
153 194 255
152 193 255
152 193 255
152 193 255
152 193 255
152 193 255
153 194 255
153 194 255
154 195 255
155 195 255
156 196 255
158 197 255
159 197 255
160 198 255
161 199 255
162 200 255
163 200 255
165 201 255
166 202 255
167 202 255
167 203 255
168 203 255
169 204 255
172 206 255
172 205 255
171 205 255
170 204 255
169 204 255
168 203 255
167 203 255
166 202 255
165 201 255
164 201 255
163 200 255
162 199 255
161 199 255
160 198 255
159 197 255
158 197 255
157 196 255
156 196 255
155 195 255
155 195 255
155 195 255
155 195 255
155 195 255
156 196 255
157 196 255
158 197 255
159 197 255
160 198 255
161 199 255
162 199 255
163 200 255
164 201 255
165 201 255
166 202 255
167 203 255
168 203 255
169 204 255
170 204 255
171 205 255
172 205 255
175 207 255
174 207 255
174 206 255
173 206 255
172 205 255
171 205 255
170 204 255
170 204 255
169 203 255
168 203 255
166 202 255
165 201 255
164 201 255
163 200 255
162 200 255
161 199 255
160 198 255
160 198 255
159 198 255
159 197 255
159 197 255
159 197 255
159 198 255
160 198 255
160 198 255
161 199 255
162 200 255
163 200 255
164 201 255
165 201 255
166 202 255
168 203 255
169 203 255
170 204 255
170 204 255
171 205 255
172 205 255
173 206 255
174 206 255
174 207 255
178 209 255
177 208 255
176 208 255
176 208 255
175 207 255
174 207 255
174 206 255
173 206 255
172 205 255
171 205 255
170 204 255
169 204 255
168 203 255
167 203 255
166 202 255
165 201 255
165 201 255
164 201 255
95 209 221
112 205 228
127 204 230
143 205 228
160 209 221
164 201 255
165 201 255
165 201 255
166 202 255
167 203 255
168 203 255
169 204 255
170 204 255
171 205 255
172 205 255
173 206 255
174 206 255
174 207 255
175 207 255
176 208 255
176 208 255
177 208 255
180 210 255
180 210 255
179 210 255
179 209 255
178 209 255
178 209 255
177 208 255
176 208 255
176 208 255
175 207 255
174 207 255
173 206 255
172 206 255
172 205 255
171 205 255
170 204 255
58 197 209
81 189 230
98 186 238
113 184 241
127 184 242
142 184 241
157 186 238
174 189 230
197 197 209
170 204 255
171 205 255
172 205 255
172 206 255
173 206 255
174 207 255
175 207 255
176 208 255
176 208 255
177 208 255
178 209 255
178 209 255
179 209 255
179 210 255
180 210 255
183 212 255
183 212 255
182 212 255
182 211 255
181 211 255
181 211 255
180 210 255
180 210 255
179 210 255
179 209 255
178 209 255
178 209 255
177 208 255
176 208 255
176 208 255
175 207 255
66 174 230
84 171 240
100 169 245
114 168 248
127 168 249
141 168 248
155 169 245
171 171 240
189 174 230
175 207 255
176 208 255
176 208 255
177 208 255
178 209 255
178 209 255
179 209 255
179 210 255
180 210 255
180 210 255
181 211 255
181 211 255
182 211 255
182 212 255
183 212 255
186 214 255
186 214 255
185 213 255
185 213 255
185 213 255
184 213 255
184 213 255
184 212 255
183 212 255
183 212 255
183 212 255
182 211 255
182 211 255
181 211 255
181 211 255
46 160 221
69 157 238
86 155 245
101 154 250
114 154 252
127 154 253
141 154 252
154 154 250
169 155 245
186 157 238
209 160 221
181 211 255
181 211 255
182 211 255
182 211 255
183 212 255
183 212 255
183 212 255
184 212 255
184 213 255
184 213 255
185 213 255
185 213 255
185 213 255
186 214 255
189 215 255
189 215 255
188 215 255
188 215 255
188 215 255
188 215 255
188 215 255
188 215 255
187 215 255
187 215 255
187 214 255
187 214 255
187 214 255
186 214 255
186 214 255
50 143 228
71 142 241
87 141 248
101 141 252
115 140 254
127 140 255
140 140 254
154 141 252
168 141 248
184 142 241
205 143 228
186 214 255
186 214 255
187 214 255
187 214 255
187 214 255
187 215 255
187 215 255
188 215 255
188 215 255
188 215 255
188 215 255
188 215 255
188 215 255
189 215 255
191 217 255
191 217 255
191 217 255
191 217 255
191 217 255
191 217 255
191 217 255
191 217 255
191 217 255
191 217 255
191 217 255
191 217 255
191 217 255
191 217 255
191 217 255
51 127 230
71 127 242
87 127 249
101 127 253
115 127 255
127 127 255
140 127 255
154 127 253
168 127 249
184 127 242
204 127 230
191 217 255
191 217 255
191 217 255
191 217 255
191 217 255
191 217 255
191 217 255
191 217 255
191 217 255
191 217 255
191 217 255
191 217 255
191 217 255
191 217 255
194 219 255
194 219 255
195 219 255
195 219 255
195 219 255
195 219 255
195 219 255
195 219 255
196 220 255
196 220 255
196 220 255
196 220 255
196 220 255
197 220 255
197 220 255
50 112 228
71 113 241
87 114 248
101 114 252
115 115 254
127 115 255
140 115 254
154 114 252
168 114 248
184 113 241
205 112 228
197 220 255
197 220 255
196 220 255
196 220 255
196 220 255
196 220 255
196 220 255
195 219 255
195 219 255
195 219 255
195 219 255
195 219 255
195 219 255
194 219 255
197 221 255
197 221 255
198 221 255
198 221 255
198 221 255
199 221 255
199 222 255
199 222 255
200 222 255
200 222 255
200 222 255
201 223 255
201 223 255
202 223 255
202 224 255
46 95 221
69 98 238
86 100 245
101 101 250
114 101 252
127 101 253
141 101 252
154 101 250
169 100 245
186 98 238
209 95 221
202 224 255
202 223 255
201 223 255
201 223 255
200 222 255
200 222 255
200 222 255
199 222 255
199 222 255
199 221 255
198 221 255
198 221 255
198 221 255
197 221 255
200 222 255
200 222 255
201 223 255
201 223 255
202 223 255
202 223 255
202 224 255
203 224 255
204 224 255
204 225 255
205 225 255
205 225 255
206 226 255
207 226 255
207 227 255
208 227 255
66 81 230
84 84 240
100 86 245
114 87 248
127 87 249
141 87 248
155 86 245
171 84 240
189 81 230
208 227 255
207 227 255
207 226 255
206 226 255
205 225 255
205 225 255
204 225 255
204 224 255
203 224 255
202 224 255
202 223 255
202 223 255
201 223 255
201 223 255
200 222 255
203 224 255
203 224 255
204 224 255
204 225 255
205 225 255
205 225 255
206 226 255
207 226 255
207 227 255
208 227 255
209 228 255
210 228 255
211 229 255
211 229 255
212 230 255
213 230 255
58 58 209
81 66 230
98 69 238
113 71 241
127 71 242
142 71 241
157 69 238
174 66 230
197 58 209
213 230 255
212 230 255
211 229 255
211 229 255
210 228 255
209 228 255
208 227 255
207 227 255
207 226 255
206 226 255
205 225 255
205 225 255
204 225 255
204 224 255
203 224 255
205 225 255
206 226 255
207 226 255
207 227 255
208 227 255
209 227 255
209 228 255
210 228 255
211 229 255
212 229 255
213 230 255
214 230 255
215 231 255
216 232 255
217 232 255
218 233 255
218 233 255
219 234 255
95 46 221
112 50 228
127 51 230
143 50 228
160 46 221
219 234 255
218 233 255
218 233 255
217 232 255
216 232 255
215 231 255
214 230 255
213 230 255
212 229 255
211 229 255
210 228 255
209 228 255
209 227 255
208 227 255
207 227 255
207 226 255
206 226 255
208 227 255
209 227 255
209 228 255
210 228 255
211 229 255
212 229 255
213 230 255
213 230 255
214 231 255
215 231 255
216 232 255
218 233 255
219 233 255
220 234 255
221 235 255
222 235 255
223 236 255
223 236 255
224 237 255
224 237 255
224 237 255
224 237 255
224 237 255
223 236 255
223 236 255
222 235 255
221 235 255
220 234 255
219 233 255
218 233 255
216 232 255
215 231 255
214 231 255
213 230 255
213 230 255
212 229 255
211 229 255
210 228 255
209 228 255
209 227 255
211 229 255
211 229 255
212 229 255
213 230 255
214 230 255
215 231 255
216 232 255
217 232 255
218 233 255
219 233 255
220 234 255
221 235 255
222 236 255
223 236 255
224 237 255
225 237 255
226 238 255
227 238 255
228 239 255
228 239 255
228 239 255
228 239 255
228 239 255
227 238 255
226 238 255
225 237 255
224 237 255
223 236 255
222 236 255
221 235 255
220 234 255
219 233 255
218 233 255
217 232 255
216 232 255
215 231 255
214 230 255
213 230 255
212 229 255
211 229 255
213 230 255
214 230 255
215 231 255
216 232 255
216 232 255
217 233 255
218 233 255
220 234 255
221 235 255
222 235 255
223 236 255
224 237 255
225 237 255
227 238 255
228 239 255
229 239 255
230 240 255
230 240 255
231 241 255
231 241 255
231 241 255
231 241 255
231 241 255
230 240 255
230 240 255
229 239 255
228 239 255
227 238 255
225 237 255
224 237 255
223 236 255
222 235 255
221 235 255
220 234 255
218 233 255
217 233 255
216 232 255
216 232 255
215 231 255
214 230 255
215 231 255
216 232 255
217 232 255
218 233 255
219 234 255
220 234 255
221 235 255
222 236 255
223 236 255
225 237 255
226 238 255
227 238 255
228 239 255
229 240 255
231 241 255
232 241 255
233 242 255
233 242 255
234 242 255
234 243 255
234 243 255
234 243 255
234 242 255
233 242 255
233 242 255
232 241 255
231 241 255
229 240 255
228 239 255
227 238 255
226 238 255
225 237 255
223 236 255
222 236 255
221 235 255
220 234 255
219 234 255
218 233 255
217 232 255
216 232 255
218 233 255
219 233 255
219 234 255
220 234 255
221 235 255
223 236 255
224 236 255
225 237 255
226 238 255
227 239 255
228 239 255
230 240 255
231 241 255
232 241 255
233 242 255
234 243 255
235 243 255
236 244 255
236 244 255
237 244 255
237 244 255
237 244 255
236 244 255
236 244 255
235 243 255
234 243 255
233 242 255
232 241 255
231 241 255
230 240 255
228 239 255
227 239 255
226 238 255
225 237 255
224 236 255
223 236 255
221 235 255
220 234 255
219 234 255
219 233 255
